<svg width="40" height="40" viewBox="0 0 40 40" fill="none" xmlns="http://www.w3.org/2000/svg">
<mask id="mask0_778_640" style="mask-type:alpha" maskUnits="userSpaceOnUse" x="0" y="0" width="40" height="40">
<rect width="40" height="40" fill="#D9D9D9"/>
</mask>
<g mask="url(#mask0_778_640)">
<path d="M10.0003 36.6667C9.08366 36.6667 8.29894 36.3404 7.64616 35.6876C6.99338 35.0348 6.66699 34.2501 6.66699 33.3334V16.6667C6.66699 15.7501 6.99338 14.9654 7.64616 14.3126C8.29894 13.6598 9.08366 13.3334 10.0003 13.3334H11.667V10.0001C11.667 7.69453 12.4795 5.72925 14.1045 4.10425C15.7295 2.47925 17.6948 1.66675 20.0003 1.66675C22.3059 1.66675 24.2712 2.47925 25.8962 4.10425C27.5212 5.72925 28.3337 7.69453 28.3337 10.0001V13.3334H30.0003C30.917 13.3334 31.7017 13.6598 32.3545 14.3126C33.0073 14.9654 33.3337 15.7501 33.3337 16.6667V33.3334C33.3337 34.2501 33.0073 35.0348 32.3545 35.6876C31.7017 36.3404 30.917 36.6667 30.0003 36.6667H10.0003ZM10.0003 33.3334H30.0003V16.6667H10.0003V33.3334ZM22.3545 27.3542C23.0073 26.7015 23.3337 25.9167 23.3337 25.0001C23.3337 24.0834 23.0073 23.2987 22.3545 22.6459C21.7017 21.9931 20.917 21.6667 20.0003 21.6667C19.0837 21.6667 18.2989 21.9931 17.6462 22.6459C16.9934 23.2987 16.667 24.0834 16.667 25.0001C16.667 25.9167 16.9934 26.7015 17.6462 27.3542C18.2989 28.007 19.0837 28.3334 20.0003 28.3334C20.917 28.3334 21.7017 28.007 22.3545 27.3542ZM15.0003 13.3334H25.0003V10.0001C25.0003 8.61119 24.5142 7.43064 23.542 6.45841C22.5698 5.48619 21.3892 5.00008 20.0003 5.00008C18.6114 5.00008 17.4309 5.48619 16.4587 6.45841C15.4864 7.43064 15.0003 8.61119 15.0003 10.0001V13.3334Z" fill="white"/>
</g>
</svg>
